<svg height="750pt" preserveAspectRatio="xMidYMid meet" viewBox="0 0 750 750" width="750pt" xmlns="http://www.w3.org/2000/svg"><path d="m870 5554c-109-29-199-106-248-212l-27-57-3-1609c-3-1777-6-1676 60-1779 39-62 111-119 185-149l58-23 2730-3c1602-1 2762 1 2807 7 146 17 250 91 311 219l32 67 3 1604c3 1770 6 1672-59 1773-43 66-110 123-178 150l-56 23-2780 2c-2424 2-2787 0-2835-13zm1050-784v-230h-475-475v230 230h475 475zm4490 0v-230h-2075-2075v230 230h2075 2075zm-10-1640v-1030h-2715-2715v1030 1030h2715 2715z" transform="matrix(.1 0 0 -.1 0 750)"/></svg>