<svg enable-background="new 0 0 486.5 388.7" viewBox="0 0 486.5 388.7" xmlns="http://www.w3.org/2000/svg"><path d="m28.6 7c-8.3 2.2-15.2 8-18.9 16l-1.8 3.6c-.2.5-.3.8-.3 1.3l-.2 120.1c-.2 133.4-.5 214.1 4.5 221.8 3 4.6 8.5 9 14.1 11.1l3.9 1.5c.4.2.8.2 1.2.2l207.6.2c122.2.1 210.7-.1 214.1-.6 11.1-1.3 19.1-6.8 23.7-16.4l2.2-4.3c.2-.5.3-.9.3-1.4l.2-208c.2-132.9.5-125.6-4.5-133.1-3.3-4.9-8.4-9.3-13.6-11.2l-3.7-1.5c-.4-.2-.8-.3-1.2-.3l-211.5-.2c-184.8.1-212.5.2-216.1 1.2zm80.1 58.9v14.1c0 1.8-1.4 3.2-3.2 3.2h-33-33c-1.8 0-3.2-1.4-3.2-3.2v-14.1-14.1c0-1.8 1.4-3.2 3.2-3.2h32.9 33c1.8 0 3.2 1.4 3.2 3.2v14.1zm342.4 0v14.1c0 1.8-1.4 3.2-3.2 3.2h-155.1-155c-1.8 0-3.2-1.4-3.2-3.2v-14.1-14.1c0-1.8 1.4-3.2 3.2-3.2h155 155c1.8 0 3.2 1.4 3.2 3.2z"/></svg>