<svg viewBox="0 0 500 500" xmlns="http://www.w3.org/2000/svg" xmlns:xlink="http://www.w3.org/1999/xlink">
  <path
    d="m490 227.8-217.8-217.8c-12.5-12.5-32.9-12.6-45.4 0l-45.2 45.2 57.4 57.4c13.8-4.7 29-1.1 39.3 9.1 10.3 10.4 13.9 25.7 9.1 39.5l55.3 55.3c13.8-4.8 29.2-1.3 39.5 9.1 14.9 14.9 14.9 39.1 0 54.1-14.9 14.9-39.2 14.9-54.1 0-10.9-10.9-14.2-27.3-8.3-41.6l-51.8-51.5v135.7c18.9 9.4 26.7 32.3 17.3 51.2-1.8 3.7-4.3 7.2-7.2 10.1-14.9 14.9-39.1 14.9-54.1 0-14.9-14.9-14.9-39.1 0-54.1 3.6-3.6 7.8-6.4 12.5-8.4v-137c-4.7-1.9-9-4.7-12.5-8.3-11-11-14.2-27.5-8.2-41.8l-56.6-56.6-149.3 149.4c-12.6 12.5-12.6 32.9 0 45.5l217.9 217.9c12.6 12.5 32.9 12.5 45.4 0l216.8-216.9c12.6-12.6 12.6-32.9 0-45.5" />
</svg>