<svg enable-background="new 0 0 500 500" viewBox="0 0 500 500" xmlns="http://www.w3.org/2000/svg"><g transform="matrix(.1 0 0 -.1 0 844)"><path d="m137.3 7857.5c-28.7-7.3-69.8-31.9-89.9-53.4-10-10.9-25.1-33.8-32.8-50.6-13.2-27.9-14.6-34.7-14.6-74.4 0-40.6.9-45.2 16.9-77.6 9.1-18.2 23.7-40.1 31.9-48.4 8.2-7.8 440.2-359.9 959.9-782.4 520.1-422.4 945.3-769.6 945.3-772.4 0-2.3-407.8-361.3-906-797.9-498.7-436-930.8-814.2-960-840.2-47.4-42-55.2-51.1-70.7-82.6-16.4-33.3-17.3-37.4-17.3-78.9s.9-45.6 16.9-78.5c20.5-41.5 47-67.1 89.4-87.1 27.8-13.2 34.7-14.6 74.4-14.6 42.4 0 45.2.5 78.9 18.2 29.7 15.5 185.2 150.1 1067.5 922.4 568 497.3 1042 914.7 1053.4 927.5 29.2 32.8 41.5 65.7 41.5 114.1.5 82.6-13.7 102.6-150.1 214-1301.1 1060.2-1992.2 1618.1-2017.8 1630.5-31.5 14.6-84.4 20-116.8 12.3z"/><path d="m2714.9 4376.2c-28.3-6.8-69.8-31-89.9-52.9-10-10.9-25.1-33.8-32.8-50.6-13.2-27.8-14.6-34.7-14.6-74.4 0-41.1.9-45.2 16.9-78 20.5-41.5 47-67.1 89.4-87.1l30.6-14.6h1074.8 1074.4l34.7 16.9c41.5 20.5 67.1 47 87.1 89.4 13.2 27.8 14.6 34.7 14.6 73.9s-1.4 46.1-14.6 73.9c-20.1 42.4-45.6 68.9-87.1 89.4l-34.7 16.9-1065.2.9c-632.9-.1-1073.1-1.4-1083.6-3.7z"/></g></svg>