<svg enable-background="new 0 0 500 500" viewBox="0 0 500 500" xmlns="http://www.w3.org/2000/svg"><path clip-rule="evenodd" d="m229.1 3c-33.7 17.7-33.9 70.2-.5 88.6 18.1 9.9 57.6 7.9 79.8-4.2 29.1-15.9 49.9-62.9 36.7-83.1l-2.9-4.3-53.8.1c-45.5 0-54.8.5-59.3 2.9m-47.1 18.5c-53.7 19.4-71.6 44.6-71.6 100.8v26.2h-8.7c-11.1 0-13 2.1-13 13.9 0 9.5-.1 9.6-5.6 9.6-12.3 0-16.2 7.6-16.2 31.7 0 25.9 4.1 33.5 18 33.5 3.3 0 3.7 1.1 3.7 9.7 0 14.7 1.8 15.7 29.3 15.7 31.8 0 29.4 4.5 30.1-56.5.5-42.9.2-49.5-2.4-53.5-5.4-8.2-3-45.6 3.7-59.1 6.1-12.2 17.3-22.8 30.1-28.6l8.9-4v-12.9c0-7.1 1.1-16.8 2.5-21.4 2.9-9.6 3.3-9.5-8.8-5.1m173.8 34.9c-2.7 5.4-7.2 13.1-10 17.1l-5.1 7.4 3.5 5.3c8.7 13.2 13.3 54.4 7.3 65.6-1.4 2.5-2 20.1-2 52.9 0 52.4.9 58 9.3 58 4.2 0 4.2.4-.1 8.8-3.6 7.1-14.8 18.2-18.7 18.5-1.2.1-11.2.3-22.1.5l-19.9.3v12.7 12.7l16.3-.1c33.6-.3 58.4-15.8 68.2-42.8 3.7-10.2 4-10.5 10.4-10.5 10.9 0 14.7-4 14.7-15.5 0-8.7.4-9.9 3.7-9.9 14 0 18-7.6 18-34.1v-21.7l-5.6-4.7c-3.2-2.7-7.8-4.7-10.9-4.7-5.2 0-5.3-.2-5.3-9.6 0-11.8-2-13.9-12.9-13.9h-8.5l-.6-34c-.7-38.6-3-46.7-17.6-60.9l-7.2-7zm-117.2 230.8c-9.8 5.3-11 22.1-2.3 30.9 6.5 6.5 36.2 6.6 42.3.2 6.2-6.6 5.7-24.9-.8-30.1-6-4.7-31.1-5.4-39.2-1m-76.9 51.6c-63.5 12.6-112.8 83.2-100.3 143.6 6.5 24.6-14.7 17.6 186.8 17.6h175.4l4.7-4.1c10.6-9.1 10.9-44.1.7-75.1-12-36.5-50.2-70.5-91.2-81.1-16.4-4.2-18.1-3.9-23.3 5-28.7 49-100.6 49.6-131.7 1.1-6.1-9.5-7-9.8-21.1-7" fill-rule="evenodd"/></svg>