<svg height="400" viewBox="0 0 400 400" width="400" xmlns="http://www.w3.org/2000/svg"><path d="m196.289 13.136c-.859.091-1.914.33-2.344.53-.429.2-1.572.563-2.539.806s-2.663 1.039-3.769 1.769c-1.106.729-2.499 1.512-3.096 1.739-1.756.668-7.209 6.806-8.983 10.111-2.908 5.419-4.169 7.645-4.664 8.237-.27.322-1.122 1.904-1.894 3.516-.771 1.611-2.382 4.599-3.579 6.64-1.198 2.041-2.714 4.854-3.371 6.25-.656 1.397-1.417 2.803-1.691 3.125-.274.323-1.15 1.817-1.947 3.321s-1.69 3.174-1.985 3.711c-.294.537-1.489 2.734-2.653 4.882-1.165 2.149-2.738 5.049-3.495 6.446-.758 1.396-1.838 3.409-2.402 4.474-.563 1.064-1.254 2.206-1.535 2.539-.28.332-.911 1.483-1.402 2.557s-1.964 3.799-3.275 6.055c-1.31 2.256-3.187 5.683-4.171 7.617-.983 1.934-2.966 5.563-4.407 8.066-1.44 2.503-2.618 4.767-2.618 5.032 0 .574-1.408 2.991-2.382 4.089-.381.43-1.874 3.155-3.317 6.055-1.443 2.901-3.037 5.834-3.542 6.518-.504.684-2.048 3.497-3.43 6.25s-2.96 5.605-3.505 6.338c-.546.733-1.201 1.963-1.455 2.734s-1.049 2.257-1.767 3.302c-.718 1.044-1.305 2.067-1.305 2.273s-.519 1.128-1.154 2.05c-.634.922-1.452 2.448-1.816 3.391-.365.943-1.039 2.242-1.498 2.886-.459.645-1.428 2.305-2.153 3.69-.726 1.385-1.734 3.13-2.242 3.878s-1.031 1.792-1.164 2.32c-.133.529-1.007 2.204-1.943 3.722s-1.702 2.98-1.702 3.247c0 .268-.234.628-.521.8-.286.171-1.007 1.367-1.602 2.656-1.603 3.473-2.48 5.109-4.73 8.827-1.118 1.848-2.255 4.045-2.527 4.883s-1.059 2.403-1.748 3.477c-1.812 2.826-4.888 8.304-4.888 8.707 0 .189-.851 1.746-1.892 3.459-1.041 1.714-2.021 3.632-2.179 4.264s-.517 1.412-.798 1.734c-.281.323-1.022 1.553-1.646 2.735-.625 1.181-1.611 2.848-2.193 3.704-.582.855-1.06 1.734-1.064 1.953s-.518 1.364-1.144 2.546c-.625 1.182-1.51 2.937-1.965 3.901-.456.964-1.145 2.107-1.532 2.539-.386.433-1.705 2.83-2.929 5.328-1.225 2.498-2.897 5.574-3.716 6.836-.818 1.262-1.625 2.734-1.792 3.271-.406 1.301-4.042 8.192-4.844 9.18-.349.429-.927 1.396-1.285 2.148-2.272 4.771-3.57 7.254-5.173 9.895-.999 1.646-2.332 4.092-2.963 5.435-.63 1.344-1.888 3.762-2.795 5.373-1.669 2.964-3.269 5.989-7.586 14.342-1.308 2.532-2.996 5.57-3.751 6.752-1.217 1.906-4.222 7.867-4.222 8.375 0 .107-.879 1.541-1.953 3.186-1.074 1.646-1.953 3.176-1.953 3.4s-.235.685-.523 1.024-1.026 1.822-1.639 3.296c-.614 1.474-1.617 3.31-2.229 4.08-.878 1.105-4.984 9.066-4.984 9.664 0 .076-.516.903-1.146 1.838-.631.934-1.356 2.569-1.612 3.632-.255 1.064-.673 2.286-.928 2.716-2.842 4.788-.282 18.419 5.172 27.542 1.167 1.952 7.904 8.981 8.608 8.981.245 0 1.209.582 2.141 1.294 6.647 5.074 12.819 6.32 29.705 5.999 50.612-.964 250.778-1.328 262.552-.478 8.139.588 46.229.632 48.828.057 1.504-.333 3.217-.685 3.806-.782 3.561-.589 12.405-4.895 12.405-6.04 0-.137.508-.474 1.128-.749 1.86-.823 7.405-7.297 9.698-11.322 1.139-2.001 1.925-4.105 3.678-9.854 1.958-6.424-.458-18.55-5.018-25.175-.747-1.085-2.344-3.995-3.548-6.465-1.205-2.471-2.575-5.02-3.045-5.664-.469-.645-1.865-3.106-3.101-5.469s-3.128-5.967-4.205-8.008c-1.076-2.041-2.327-4.414-2.779-5.273-.451-.86-1.365-2.354-2.03-3.321-.666-.967-1.513-2.678-1.883-3.804-.37-1.125-.817-2.135-.993-2.244s-.847-1.209-1.491-2.446c-.643-1.236-1.804-3.211-2.579-4.387-.776-1.177-1.41-2.397-1.41-2.711 0-.315-.681-1.725-1.513-3.134-2.867-4.856-3.549-6.084-4.354-7.836-.445-.967-.97-2.022-1.168-2.344-.197-.322-1.001-1.816-1.787-3.32-.785-1.504-2.01-3.614-2.721-4.688s-1.834-3.16-2.496-4.635-1.789-3.672-2.506-4.883c-.717-1.21-1.945-3.282-2.73-4.603-.786-1.322-1.428-2.65-1.428-2.951 0-.302-.529-1.383-1.177-2.404-.647-1.02-1.817-3.032-2.6-4.471-.783-1.438-1.66-2.962-1.948-3.386-.289-.424-.525-1.003-.525-1.288s-.615-1.48-1.367-2.655c-.752-1.176-1.367-2.225-1.367-2.333 0-.107-.44-.892-.977-1.742-.537-.851-.976-1.757-.976-2.013s-.24-.742-.532-1.082c-.293-.339-1.203-1.935-2.023-3.546-.821-1.611-1.726-3.21-2.013-3.552-.286-.342-.953-1.725-1.481-3.074-.529-1.349-1.383-3.005-1.898-3.68-.516-.676-2.176-3.6-3.689-6.497-1.514-2.897-3.382-6.312-4.152-7.588-.77-1.277-1.4-2.475-1.4-2.663s-.444-.924-.987-1.636-1.417-2.39-1.941-3.728c-.525-1.338-1.152-2.672-1.394-2.964-.921-1.11-3.275-5.184-4.947-8.563-.957-1.934-1.976-3.78-2.264-4.104-.288-.323-1.155-1.865-1.927-3.427s-2.102-3.982-2.956-5.377c-.854-1.394-1.553-2.651-1.553-2.791 0-.141-.249-.533-.555-.872-.305-.339-.902-1.5-1.326-2.579s-1.809-3.628-3.078-5.664c-1.268-2.036-3.036-5.196-3.928-7.022s-2.529-4.815-3.636-6.641c-1.108-1.826-2.504-4.375-3.101-5.664-.598-1.289-1.987-3.838-3.086-5.664s-2.589-4.551-3.312-6.055-2.37-4.424-3.66-6.49c-1.291-2.065-2.555-4.385-2.809-5.156-.255-.771-.918-2.069-1.474-2.885-1.216-1.786-1.95-3.075-4.508-7.922-1.075-2.036-2.623-4.802-3.439-6.145s-1.607-2.831-1.758-3.306c-.15-.474-.918-1.928-1.705-3.229-2.917-4.821-5.89-10.245-5.89-10.744 0-.282-.625-1.383-1.389-2.446-.763-1.063-1.555-2.372-1.759-2.909-.204-.536-.888-1.726-1.519-2.644-.631-.917-1.266-2.178-1.411-2.802s-.919-2.189-1.72-3.478-2.052-3.303-2.781-4.475c-.729-1.173-1.699-3.053-2.157-4.178-.457-1.125-1.461-2.994-2.23-4.153-.77-1.16-2.394-4.026-3.611-6.37-1.216-2.344-2.604-4.877-3.085-5.629-.48-.752-1.593-2.597-2.473-4.101-1.636-2.798-7.086-8.789-7.995-8.789-.278 0-1.406-.594-2.507-1.319-4.296-2.829-11.587-4.23-18.293-3.514m8.997 110.847c5.288 1.486 6.92 2.305 8.942 4.486 1.091 1.177 2.335 2.513 2.765 2.968 4.146 4.384 4.641 8.412 4.369 35.555-.22 22.061-1.368 44.485-3.02 58.985-4.098 35.975-6.11 45.243-11.037 50.855-2.868 3.266-10.968 3.385-12.993.191-.365-.575-1.066-1.486-1.558-2.023-3.623-3.953-7.214-23.823-10.697-59.18-2.194-22.279-3.103-69.857-1.451-75.976 1.483-5.497 2.314-7.043 5.635-10.484 4.773-4.947 12.656-7.173 19.045-5.377m2.692 173.268c9.897 4.724 12.558 17.475 5.381 25.793-.28.324-.807.984-1.172 1.467-.99 1.31-8.461 4.005-11.103 4.005-3.739 0-10.675-2.541-12.507-4.582-2.581-2.875-4.834-9.391-4.513-13.049 1.019-11.599 13.394-18.654 23.914-13.634" fill-rule="evenodd"/></svg>