<svg enable-background="new 0 0 500 500" viewBox="0 0 500 500" xmlns="http://www.w3.org/2000/svg"><path clip-rule="evenodd" d="m388.6 24.2c-23.9 3.1-45.1 15.1-60.9 34.3-19.8 24.1-25.1 48-16.3 73.4l1 2.8-5.3 4c-2.9 2.2-7.3 5.4-9.7 7.2s-5 3.6-5.8 4.2c-.8.5-3.8 2.7-6.8 4.9-3 2.1-7.5 5.4-10.1 7.3s-6.2 4.5-8 5.8c-4.4 3.1-5.6 4-10.2 7.4-2.2 1.6-4.9 3.6-6 4.4-3 2.1-22.1 16.5-27.9 20.9-6 4.5-11.5 10.2-14.9 15.3-1.4 2-3.2 4.5-4 5.5s-2.4 3.1-3.5 4.7-2.7 3.9-3.7 5-2.6 3.3-3.7 4.7c-2.1 3-9.3 12.8-9.9 13.6-.8 1-16.5 22.2-23.7 31.9-4.3 5.8-9.1 12.1-9.3 12.1-.1 0-1.3-.8-2.8-1.8-5.7-3.8-15.3-8-21.6-9.6-25.5-6.3-60.8-.6-83.7 13.4-23.4 14.3-36 33.6-40.5 61.6-2.3 14.8 0 41.5 4.5 52.9.8 2 1.5 3.9 1.5 4.2 0 1 5.4 11.4 8.5 16.3 19.6 31.4 52.8 48.3 89.3 45.5 15-1.1 29.4-4.5 39.4-9 1.7-.8 3.3-1.4 3.4-1.4.8 0 11.3-6.5 15.1-9.3 16.1-12.1 29-30.4 35.1-49.8 4.7-15.2 3.1-38.8-4.1-59.1l-1.5-4.1 2.9-2.4c1.6-1.3 4.8-3.7 7-5.4 2.3-1.7 6-4.5 8.2-6.2 2.3-1.7 5.2-3.9 6.5-4.9 2.4-1.7 22.9-17.2 42.2-31.8 5.6-4.2 10.6-8 11.2-8.5 1.5-1.1 10.8-8.1 12.2-9.2 2-1.6 3.6-3.3 7.6-8 5.3-6.2 14.7-17.1 16.4-18.9.7-.8 3.3-3.7 5.7-6.5 2.4-2.7 5-5.8 5.9-6.7.9-1 2.9-3.3 4.5-5.2 6.2-7.2 30.9-34.5 32.3-35.6 1.2-1 1.6-.9 7.3 2.4 17.8 10.2 41.3 14.7 61.2 11.7 49.9-7.6 80.1-50.7 75.1-107.4-.8-9-.5-8.7-5.4-4.6-5.3 4.4-5.6 4.7-12.2 10.4-3 2.6-6.8 5.8-8.5 7.2-1.6 1.4-5.1 4.3-7.7 6.5s-5.3 4.5-6 5.1-5 4.3-9.6 8.2c-7.2 6.2-8.8 7.3-11.3 8.1l-2.9.9-1.6-1.4c-6.2-5.2-38.8-37.5-43.5-43.1-2.7-3.2-5.5-7.3-7.3-10.5l-1.5-2.8 2.2-2.6c1.2-1.5 5.3-6.2 9.2-10.5 3.8-4.3 7.7-8.8 8.6-10 .9-1.1 2.1-2.5 2.7-3.1s3.2-3.5 5.8-6.5 5.6-6.3 6.6-7.4c1-1 2.7-2.9 3.7-4.2s2.4-2.9 3.2-3.6c2.4-2.2 7.4-7.9 7.4-8.4 0-.9-7.8-3.2-14.9-4.3-5.5-.9-20.3-.9-27.1 0m-295.9 302.1c1.7.7 5.4 2.2 8.3 3.2s7.7 2.8 10.7 3.9 7.6 2.8 10.2 3.7c13.4 4.8 21.4 8.2 21.4 9.1 0 .4 1.9 11.2 5.1 28.7 4.1 22.4 4.9 27.5 4.7 28.3-.3.7-5.8 5.2-15.5 12.5-2.5 1.9-7.7 5.9-11.5 9-18.2 14.4-19.4 15.2-22.8 13.6-2-.9-15.1-6-16.8-6.6-2.6-.8-28.3-11.2-31.6-12.7-4.4-2.1-4.4-2.2-9.2-32-.8-5.2-2-11.9-2.5-14.8l-1-5.3 1.1-1.9c1.2-2.1 1.6-2.5 22.2-22.5 19.9-19.3 17.6-17.4 21-17.4 2.2-.2 4 .2 6.2 1.2" fill-rule="evenodd"/></svg>