<svg height="280.373832" viewBox="0 0 400 280.37383178" width="400" xmlns="http://www.w3.org/2000/svg"><path d="m105.607 1.173c-98.611 5.998-104.619 13.981-104.619 139.014 0 138.959 1.696 140.153 199.012 140.153s199.012-1.194 199.012-140.153c0-112.749-8.62-130.019-68.171-136.581-16.932-1.866-201.734-3.862-225.234-2.433m139.72 127.483c10.023 5.752 18.224 11.036 18.224 11.742s-20.817 13.244-46.261 27.862c-25.444 14.617-48.996 28.228-52.337 30.246l-6.074 3.668v-61.716-61.717l34.112 19.728c18.761 10.85 42.313 24.434 52.336 30.187"/></svg>